<svg id="Capa_1" enable-background="new 0 0 512 512" height="512" viewBox="0 0 512 512" width="512" xmlns="http://www.w3.org/2000/svg"><g><g><g><g><g><g><g><circle cx="351.66" cy="72.336" r="7.537"/><circle cx="384.468" cy="72.336" r="7.537"/><circle cx="417.275" cy="72.336" r="7.537"/></g></g></g></g></g><g><path d="m401.615 450.799c-4.308 0-7.799-3.492-7.799-7.799s3.492-7.799 7.799-7.799 7.799 3.492 7.799 7.799c.001 4.307-3.491 7.799-7.799 7.799z"/></g></g><g><path d="m60.359 81.512h226.184c4.142 0 7.5-3.357 7.5-7.5s-3.358-7.5-7.5-7.5h-226.184c-4.142 0-7.5 3.357-7.5 7.5s3.358 7.5 7.5 7.5z"/><path d="m254.889 213.651-46.903 117.925c-1.531 3.849.349 8.21 4.197 9.74 3.815 1.519 8.197-.317 9.741-4.197l46.903-117.925c1.531-3.849-.349-8.21-4.197-9.74-3.85-1.535-8.209.348-9.741 4.197z"/><path d="m308.605 234.976c-2.785-3.065-7.529-3.293-10.594-.507s-3.292 7.529-.506 10.594l27.003 29.713-27.102 31.04c-2.725 3.12-2.404 7.857.717 10.582 3.139 2.742 7.876 2.383 10.582-.717l31.496-36.072c2.505-2.868 2.462-7.158-.099-9.976z"/><path d="m178.803 234.469c-3.065-2.785-7.808-2.559-10.594.507l-31.497 34.657c-2.561 2.818-2.604 7.108-.099 9.976l31.497 36.072c2.711 3.105 7.447 3.454 10.582.717 3.12-2.725 3.441-7.462.716-10.582l-27.102-31.04 27.003-29.713c2.786-3.065 2.559-7.808-.506-10.594z"/><path d="m401.615 340.72c-4.142 0-7.5 3.357-7.5 7.5v68.611c0 4.142 3.358 7.5 7.5 7.5s7.5-3.357 7.5-7.5v-68.611c0-4.142-3.358-7.5-7.5-7.5z"/><path d="m302.918 380.916h-213.683c-5.857 0-10.623-4.766-10.623-10.623v-190.19c0-5.857 4.765-10.623 10.623-10.623h296.574c5.857 0 10.623 4.765 10.623 10.623v81.193c0 4.142 3.358 7.5 7.5 7.5s7.5-3.357 7.5-7.5v-81.193c0-14.129-11.494-25.622-25.622-25.622h-296.575c-14.128 0-25.622 11.494-25.622 25.622v190.19c0 14.129 11.494 25.622 25.622 25.622h213.683c4.142 0 7.5-3.357 7.5-7.5s-3.358-7.499-7.5-7.499z"/><path d="m508.862 451.668-32.048-55.51v-343.404c0-14.959-12.169-27.128-27.127-27.128h-422.56c-14.958 0-27.127 12.169-27.127 27.128v369.663c0 14.959 12.169 27.128 27.127 27.128h268.467l-1.226 2.124c-8.902 15.419 2.209 34.706 20.038 34.706h174.419c17.804-.001 28.953-19.267 20.037-34.707zm-481.735-411.043h422.56c6.687 0 12.128 5.441 12.128 12.129v51.293h-446.815v-51.293c0-6.688 5.44-12.129 12.127-12.129zm0 393.92c-6.687 0-12.128-5.441-12.128-12.129v-303.37h446.815v251.133l-40.161-69.562c-8.902-15.42-31.162-15.44-40.075 0l-77.323 133.928zm461.698 36.83h-174.419c-6.273 0-10.179-6.783-7.048-12.207l7.676-13.295c.033-.056.066-.112.097-.169l79.437-137.588c3.137-5.433 10.963-5.425 14.095 0l54.101 93.706c.034.061.069.122.105.182l33.003 57.164c3.137 5.433-.784 12.207-7.047 12.207z"/></g></g></svg>