<?xml version="1.0" encoding="iso-8859-1"?>
<!-- Generator: Adobe Illustrator 19.0.0, SVG Export Plug-In . SVG Version: 6.00 Build 0)  -->
<svg version="1.1" id="Capa_1" xmlns="http://www.w3.org/2000/svg" xmlns:xlink="http://www.w3.org/1999/xlink" x="0px" y="0px"
	 viewBox="0 0 512.001 512.001" style="enable-background:new 0 0 512.001 512.001;" xml:space="preserve">
<g>
	<g>
		<path d="M458.367,278.917h-82.263c-4.144,0-7.503,3.359-7.503,7.503s3.359,7.503,7.503,7.503h82.263
			c4.144,0,7.503-3.359,7.503-7.503C465.87,282.275,462.511,278.917,458.367,278.917z"/>
	</g>
</g>
<g>
	<g>
		<path d="M289.639,47.668H41.493c-6.445,0-11.688,5.243-11.688,11.688v50.747c0,4.144,3.359,7.503,7.503,7.503
			c4.144,0,7.503-3.359,7.503-7.503V62.675h241.51v47.429c0,4.144,3.359,7.503,7.503,7.503s7.503-3.359,7.503-7.503V59.357
			C301.327,52.912,296.084,47.668,289.639,47.668z"/>
	</g>
</g>
<g>
	<g>
		<path d="M293.824,142.616c-4.144,0-7.503,3.359-7.503,7.503v47.428H44.811v-47.428c0-4.144-3.359-7.503-7.503-7.503
			c-4.144,0-7.503,3.359-7.503,7.503v50.746c0,6.445,5.243,11.688,11.688,11.688h248.145c6.445,0,11.689-5.243,11.689-11.688
			v-50.746C301.327,145.975,297.968,142.616,293.824,142.616z"/>
	</g>
</g>
<g>
	<g>
		<path d="M501.87,306.391h-12.015c0.001-0.069,0.01-0.137,0.01-0.206V116.646c0-8.388-6.824-15.212-15.212-15.212H359.817
			c-8.388,0-15.212,6.824-15.212,15.212v189.539c0,0.07,0.01,0.137,0.011,0.206h-88.157v-15.558c0-6.571-5.346-11.917-11.917-11.917
			H205.55l-4.812-20.393h109.607c11.461,0,20.786-9.325,20.786-20.786V38.011c0-11.462-9.325-20.787-20.786-20.787H20.787
			C9.325,17.224,0,26.548,0,38.011v199.726c0,11.461,9.325,20.786,20.787,20.786h109.606l-4.812,20.393H86.59
			c-6.571,0-11.917,5.346-11.917,11.917v15.558H11.518c-5.585,0-10.129,4.544-10.129,10.13v37.132c0,5.585,4.544,10.13,10.129,10.13
			h36.57v123.492c0,4.144,3.359,7.503,7.503,7.503s7.503-3.359,7.503-7.503V363.783h20.341v45.156
			c0,9.393,7.642,17.035,17.035,17.035h311.059c9.393,0,17.036-7.642,17.036-17.035v-45.156h20.341v123.492
			c0,4.144,3.359,7.503,7.503,7.503s7.503-3.359,7.503-7.503V363.783h37.959c5.585,0,10.13-4.545,10.13-10.13V316.52
			C512,310.934,507.455,306.391,501.87,306.391z M359.816,116.439h114.837c0.113,0,0.206,0.093,0.206,0.206v189.539
			c0,0.113-0.093,0.206-0.206,0.206H359.817c-0.113,0-0.206-0.093-0.206-0.206V116.646h-0.001
			C359.61,116.532,359.703,116.439,359.816,116.439z M20.787,243.517c-3.188,0-5.781-2.593-5.781-5.781V38.011
			c0-3.188,2.593-5.781,5.781-5.781h289.559c3.188,0,5.78,2.594,5.78,5.781v199.726c0,3.188-2.593,5.781-5.78,5.781H20.787z
			 M190.132,278.916H141l4.811-20.393h39.51L190.132,278.916z M89.679,293.923h151.774v12.469H89.679V293.923z M413.56,383.29
			H172.085c-4.144,0-7.503,3.359-7.503,7.503s3.359,7.503,7.503,7.503H413.56v10.642c0,1.119-0.91,2.029-2.03,2.029H100.47
			c-1.119,0-2.03-0.911-2.03-2.029v-10.642h32.821c4.144,0,7.503-3.359,7.503-7.503s-3.359-7.503-7.503-7.503H98.44v-19.508h315.12
			V383.29z M496.994,348.777h-480.6v-27.38h480.6V348.777z"/>
	</g>
</g>
<g>
	<g>
		<path d="M452.919,126.11h-71.368c-7.14,0-12.95,5.81-12.95,12.95v12.529c0,7.14,5.81,12.95,12.95,12.95h71.368
			c7.141,0,12.951-5.81,12.951-12.95v-12.529C465.87,131.921,460.06,126.11,452.919,126.11z M450.865,149.534h-67.258v-8.418h67.258
			V149.534z"/>
	</g>
</g>
<g>
	<g>
		<path d="M452.919,170.663h-71.368c-7.14,0-12.95,5.81-12.95,12.951v12.529c0,7.14,5.81,12.95,12.95,12.95h71.368
			c7.141,0,12.951-5.81,12.951-12.95v-12.529C465.87,176.473,460.06,170.663,452.919,170.663z M450.865,194.087h-67.258v-8.419
			h67.258V194.087z"/>
	</g>
</g>
<g>
	<g>
		<path d="M417.235,221.542c-12.785,0-23.187,10.401-23.187,23.187c0,12.785,10.401,23.186,23.187,23.186
			c12.785,0,23.186-10.401,23.186-23.186C440.421,231.943,430.02,221.542,417.235,221.542z M417.236,252.91
			c-4.511,0-8.182-3.67-8.182-8.181c0-4.511,3.67-8.182,8.182-8.182c4.51,0,8.181,3.671,8.181,8.182
			C425.417,249.238,421.747,252.91,417.236,252.91z"/>
	</g>
</g>
<g>
</g>
<g>
</g>
<g>
</g>
<g>
</g>
<g>
</g>
<g>
</g>
<g>
</g>
<g>
</g>
<g>
</g>
<g>
</g>
<g>
</g>
<g>
</g>
<g>
</g>
<g>
</g>
<g>
</g>
</svg>
