<?xml version="1.0" encoding="UTF-8"?>
<svg viewBox="0 0 370 95" version="1.1" xmlns="http://www.w3.org/2000/svg" xmlns:xlink="http://www.w3.org/1999/xlink">

    <g id="Page-1" stroke="none" stroke-width="1"  fill-rule="evenodd">
        <g  id="howl-logo">
            <g>
                <g id="SvgjsG1602" transform="translate(0.000568, -0.000518)"  fill-rule="nonzero">
                    <g id="Group">
                        <path d="M45.8378932,0.096335651 C48.19762,-0.022842474 50.564299,-0.0278082292 52.9260122,0.0645548177 C58.2602264,0.427054948 63.5427968,1.61089099 68.4876958,3.65479583 C79.568282,8.15873581 88.8890045,16.8209992 94.1815064,27.5480236 C97.4906857,34.2200123 99.3180836,41.6517615 99.3051726,49.1063533 C99.517707,59.4748501 96.2005825,69.8473196 90.1910255,78.2851309 C86.6355448,83.2498929 82.2021186,87.6187643 77.069514,90.9408546 L76.9503359,90.8991422 C75.2897873,88.8085593 74.0264992,86.3862639 73.3620811,83.7941397 C72.8714645,82.2368788 72.6162247,80.6190358 72.3073547,79.0190695 C71.9289642,78.0398225 70.7302309,78.0636582 70.0231073,77.450884 C68.8134494,76.5163288 67.9355038,75.0206434 67.9076956,73.4782798 C68.0993738,73.3829373 68.3486547,73.400814 68.475778,73.5944785 C68.9157439,74.1119102 69.2117029,74.7534857 69.7430387,75.1964311 C71.2258132,76.4676644 73.2349578,77.0337605 75.1666366,76.9155756 C76.569959,76.7288632 78.0447883,76.9175619 79.3865354,76.3703356 C81.8803376,75.5023216 83.7583862,73.571636 85.8142089,72.0034505 C86.5630448,71.4979366 87.2264697,70.8792035 87.9107507,70.2922513 C87.9375658,70.2366348 87.9902028,70.1293745 88.0150316,70.0747512 C87.5462643,69.9923197 87.0933874,70.1949225 86.6345517,70.2654362 C85.3722567,70.4829363 84.1079754,70.7093747 82.8287969,70.8116693 C80.9507482,71.1215324 79.0399256,71.1950256 77.1390345,71.1175598 C76.464685,71.0460529 75.7724587,71.020231 75.1328694,70.7739295 C73.8427662,70.3399225 72.8605399,69.3358468 71.9577656,68.3595793 C70.001258,66.1160511 68.5691342,63.4901598 66.8470103,61.0748165 C65.9998525,59.9297133 65.0166329,58.8183773 63.7165982,58.1827606 C62.8614952,57.8123153 61.9477962,57.5789248 61.0211863,57.4865617 C60.605056,57.4994727 60.3964943,57.0773835 60.1074873,56.8479656 C59.4033432,56.1398489 58.3794045,55.9928626 57.4855686,55.6492323 C56.9443013,55.4307391 56.357349,55.3979651 55.7823146,55.3850541 C53.1385465,54.9907732 50.4083743,55.3731363 47.8013528,54.6858758 C46.7158387,54.3392661 45.7792973,53.6669028 44.8358038,53.0491629 C43.5228581,52.1960461 42.3022755,51.2028951 40.931727,50.4391619 C38.9166236,49.5572438 37.709945,47.5898116 35.9034033,46.4029961 C34.7026837,45.2966259 33.2765188,44.4782694 31.7778539,43.8426527 C30.8085385,43.3291936 29.7150792,42.7174126 29.3207982,41.6289191 L29.3625105,41.4829259 C30.141141,41.556419 31.0806618,41.8474123 31.7430936,41.2882683 C31.7609703,41.0469325 31.5772374,40.8681654 31.4511072,40.6874119 C30.9992235,40.1372062 30.5741548,39.5562128 30.0140176,39.1073086 C29.240353,38.4687124 28.1786745,38.2541918 27.4943934,37.492445 C26.4644958,36.2847733 26.0870984,34.6430946 24.9717898,33.4969983 C24.3808649,32.8852173 23.4194947,33.0421352 22.7669945,32.5356281 C21.422268,31.6219292 20.4052813,30.3308328 19.2562055,29.1996338 C18.6583286,28.6404897 18.4080546,27.8380237 17.9263763,27.1934687 C17.7456228,26.9551124 17.404972,27.07727 17.2222322,27.2441194 C16.7713416,27.6393935 16.3929511,28.116106 16.0513071,28.6097021 C15.7195947,29.1172022 15.8506906,29.74686 15.8427454,30.3149424 C15.307437,30.2086752 14.5586011,30.010045 14.2636353,30.6357302 C13.9180187,31.4570661 13.9835667,32.4760391 14.3877791,33.2745325 C15.4196631,35.2072044 15.5020946,37.4517258 16.2598689,39.4817265 C16.5449032,40.4897748 17.1100061,41.4898779 16.9431568,42.5664536 C16.4197662,43.5010088 16.0691839,44.534879 16.0125742,45.6114547 C15.879492,47.8410788 16.0622318,50.0806344 16.39891,52.2854297 C16.8180197,54.1297112 17.5162049,55.9014927 18.3425066,57.6017673 C19.0476438,59.2692679 20.3010004,60.6040629 21.4212748,61.9964606 C22.3270286,63.1524884 23.5416523,64.0135504 24.4990499,65.1229001 C25.0899748,65.7932771 25.8785367,66.3176608 26.2986396,67.1240994 C27.2331947,69.6745113 28.2601129,72.2159848 29.7379216,74.5081774 C31.5047373,77.5045141 31.8612786,81.1166045 31.5514154,84.5250988 C31.4818949,84.861777 31.4511072,85.446743 30.9773741,85.4209211 C29.9683327,85.3921197 28.9602844,85.2669827 27.9572018,85.1478045 C27.6235031,85.1358867 27.2401468,85.065373 26.9690165,85.3146539 C26.0483655,85.9820514 25.1297008,86.6534215 24.2060703,87.3158533 C23.9140839,87.5432849 23.5287413,87.4241067 23.1940494,87.4241067 C21.5901105,87.3506136 19.9802127,87.3754423 18.3921641,87.1152368 C17.8012393,87.0010244 17.1626431,86.9841408 16.6313073,86.6712982 C11.74997,82.3054063 7.69890687,77.0009866 4.8624675,71.092731 C1.74099378,64.5508451 -0.0307876823,57.323685 0.00993151042,50.0617646 C-0.220479531,39.3148771 3.35089161,28.5660034 9.78651036,19.969288 C15.5924714,12.1750386 23.7204195,6.11483096 32.8842241,2.86325445 C37.0514859,1.35763747 41.4302888,0.470753594 45.8378932,0.096335651 Z" id="Path"></path>
                        <path d="M42.6459057,72.2318753 C43.5933718,71.112594 45.1377217,70.6646829 46.566866,70.7600254 C47.1895717,70.7093747 47.8192295,70.9576625 48.2373461,71.4234503 C48.4608051,71.710471 48.5581339,72.0699916 48.6951887,72.4036904 C49.4847438,74.4376637 50.1978262,76.5153357 51.2316965,78.444035 C51.9229296,79.5235902 52.8634436,80.4154398 53.8119029,81.2655771 C54.9868006,82.2736254 56.1765955,83.2687628 57.4527946,84.1486946 C58.0000208,84.5419824 58.65848,84.8409209 58.9921787,85.4646197 C59.5433775,86.4428735 59.5751584,87.6018808 59.7688228,88.6854086 C59.8184804,89.2147581 60.0230695,89.7421213 59.907864,90.2784228 C59.5483433,90.3221215 59.3368021,89.865272 58.9633773,89.9000323 C57.3683768,89.9814707 55.8071433,90.3697927 54.2161154,90.5088339 C53.7125878,90.52969 53.1584095,90.7799641 52.6926217,90.4889709 C51.3876212,89.799724 50.1322783,89.0201005 48.835223,88.3149632 C48.3863187,88.0458193 47.8400857,88.162018 47.3464896,88.1789015 C46.4109413,88.3119838 45.4585095,88.3815043 44.5160091,88.2841755 C44.028372,88.149107 43.5387485,88.0170179 43.049125,87.8908877 C42.4423098,87.722052 42.5545358,86.9424285 42.5167961,86.4547913 C42.4393303,85.80825 42.7342962,85.2242772 42.9637141,84.6422907 C43.2050498,82.8695161 42.9150497,81.0907825 42.818714,79.3190011 C42.6041934,77.5780073 42.5515564,75.8231094 42.5058714,74.0721841 C42.457207,73.4653688 42.3082344,72.7820809 42.6459057,72.2318753 Z" id="Path"></path>
                        <path d="M35.6501498,70.9556762 C36.2400815,70.704409 37.1855613,70.7093747 37.3722737,71.4711216 C38.2541918,74.8607461 38.7348769,78.3397542 39.2791237,81.7959198 C39.4886786,83.3561601 39.3238155,84.9660579 38.7259386,86.4289694 L38.6027878,86.5163667 C37.4040545,86.3157502 36.23015,85.9939692 35.0443277,85.73575 C34.6182659,85.6930445 34.6550124,85.1875306 34.6023754,84.874688 C34.5775467,83.9570164 34.5358343,83.033386 34.70467,82.1266391 C34.7761769,80.8563989 34.6728892,79.5752341 34.8605947,78.3119459 C34.8655605,76.846055 35.1605263,75.3950613 35.053266,73.9281772 C35.000629,73.2866017 34.3491219,72.828759 34.4236083,72.1613615 C34.5696015,71.572423 35.1029236,71.1592721 35.6501498,70.9556762 Z" id="Path"></path>
                        <path d="M61.3886522,79.029001 C61.6011865,78.9286927 61.8286181,78.9882818 62.0302278,79.0856106 C63.5328653,79.7232136 65.0494069,80.3479056 66.4497499,81.1930771 C66.9671816,81.5019471 67.3872845,81.9498582 67.7438257,82.4325296 C69.0249905,84.1149275 70.1750594,85.900613 71.1642379,87.7727028 C72.1027656,89.5534226 72.5586219,91.5893822 72.4305055,93.6005131 C69.6616004,93.2340403 66.9542706,92.5179784 64.2121806,92.002533 C63.9579339,91.9290399 63.5457762,91.942944 63.5130023,91.5973274 C63.2190296,89.5196554 63.3362214,87.4042437 63.7374544,85.3514005 C63.8894065,84.6273934 63.2001597,84.1953727 62.7522486,83.7693109 C61.5306728,82.5854749 61.3330357,80.7699948 61.3240974,79.1581106 L61.3886522,79.029001 Z" id="Path"></path>
                    </g>
                </g>
                <g id="SvgjsG1603" transform="translate(118.122573, 15.458856)"  fill-rule="nonzero">
                    <path d="M11.7111326,26.2072498 L11.7111326,0.541478926 L0.877426979,0.541478926 L0.877426979,62.1908356 L11.7111326,62.1908356 L11.7111326,26.2072498 Z M41.244846,0.541148756 L41.244846,26.2072498 L22.4152465,26.2072498 L22.4152465,36.2672019 L41.244846,36.2672019 L41.244846,62.1905055 L51.9496202,62.1905055 L51.9496202,0.541148756 L41.244846,0.541148756 L41.244846,0.541148756 Z M89.7138132,52.2596499 C88.4240864,52.0017045 87.2202037,51.6146627 86.1024129,51.0987719 C83.6948127,49.9809646 81.5883276,48.4333089 79.7827926,46.4557552 C78.0632668,44.6500551 76.6874481,42.4146386 75.6556666,39.7491755 C74.709911,37.0837125 74.2369588,34.3753274 74.2369588,31.623855 L74.2369588,31.3659097 L74.2369588,30.9789833 C74.2369588,28.1415017 74.7098944,25.3901945 75.6556666,22.7247314 C76.7734739,19.9734242 78.1492761,17.7807647 79.7829577,16.1470832 C81.5024834,14.1695295 83.5660464,12.6647794 85.9736466,11.6329979 C87.435293,10.9451876 88.6820317,10.5153226 89.7138132,10.3434031 L89.7138132,0.670410341 C86.7044781,1.10027527 84.039015,1.83117277 81.7174241,2.86290473 C77.9343354,4.49660278 74.7098944,6.68908067 72.0444314,9.440553 C69.3789684,12.1920253 67.2724833,15.4592233 65.7248111,19.2423121 C64.1771388,23.0254008 63.4032202,26.9806732 63.4032202,31.1077992 L63.4032202,31.3657446 L63.4032202,31.7526709 C63.4032202,35.9658061 64.1770563,39.9210786 65.7248111,43.6183231 C67.1005637,47.3155676 69.1641927,50.5398435 71.9155,53.2913158 C74.6668072,56.1287975 77.8912482,58.3212919 81.5884927,59.8689641 C83.9100836,60.9007456 86.6184688,61.6315771 89.7138132,62.0614585 L89.7138132,52.2595343 L89.7138132,52.2596499 Z M124.79451,31.3661573 L124.79451,30.979231 C124.79451,26.7660957 124.020674,22.8108233 122.472919,19.1135788 C120.925247,15.33049 118.818762,12.0631269 116.153299,9.31181969 C113.573845,6.56051244 110.392491,4.41077507 106.609237,2.86310284 C104.459665,1.83132135 101.837289,1.10048988 98.7417796,0.670608443 L98.7417796,10.4725326 L100.289617,10.9884233 C101.063453,11.2463687 101.66537,11.461359 102.095317,11.633295 C104.502917,12.7511023 106.609402,14.2987581 108.414937,16.2763117 C110.134463,18.0820119 111.510282,20.3174284 112.542063,22.9828914 C113.487819,25.6483544 113.960771,28.3567396 113.960771,31.1082119 L113.960771,31.3661573 L113.960771,31.7530836 C113.960771,34.5905652 113.487836,37.3418725 112.542063,40.0073355 C111.424256,42.7586428 110.048454,44.9513022 108.414772,46.5849838 C106.695247,48.5625375 104.631684,50.0672876 102.224083,51.0990691 C101.106276,51.6149598 99.9455797,52.0018861 98.7417796,52.2598315 L98.7417796,62.0617557 C101.321233,61.7177845 103.900687,60.9869035 106.480141,59.8690962 C110.005367,58.4074498 113.229643,56.2149388 116.153134,53.2914479 C118.990615,50.2821127 121.0971,47.0149147 122.472754,43.4896888 C124.020426,39.7066001 124.79451,35.7513277 124.79451,31.6242017 L124.79451,31.3662563 L124.79451,31.3661573 Z M141.147708,0.670245256 L131.216852,0.670245256 L143.727162,62.0620693 L154.560867,62.0620693 L146.564478,24.2724532 L141.147708,0.670245256 Z M182.935684,0.670245256 L175.713213,26.3360162 L180.614258,45.0368493 L192.479745,0.670245256 L182.935684,0.670245256 Z M167.328544,19.4998447 L166.554708,16.2755688 L162.427582,0.669915086 L156.881715,18.9844492 L156.62377,19.50034 L154.560207,26.7228104 L158.42947,44.0055631 L160.879992,35.4932832 L167.199613,62.0620693 L178.16225,62.0620693 L168.618188,24.2724532 L167.328544,19.4998447 Z M208.05882,0.670245256 L218.634663,0.670245256 L218.634663,52.2593197 L250.877422,52.2593197 L250.877422,62.0612439 L208.057664,62.0612439 L208.057664,0.66941983 L208.05882,0.670245256 Z" id="Shape"></path>
                </g>
            </g>
        </g>
    </g>
</svg>