<svg id="Capa_1" enable-background="new 0 0 514.357 514.357" height="512" viewBox="0 0 514.357 514.357" width="512" xmlns="http://www.w3.org/2000/svg"><g><path d="m513.487 195.66c-17.813-50.869-50.196-94.839-93.647-127.155-44.294-32.943-96.905-51.245-152.147-52.928-4.151-.127-8.142 1.411-11.152 4.331-2.982 2.893-4.692 6.935-4.692 11.088v25.291c-39.756 1.274-77.756 12.657-111.04 32.927l-26.219-22.168h13.437c7.258 0 13.163-5.904 13.163-13.162v-39.541c0-7.258-5.905-13.163-13.163-13.163h-114.865c-7.258.001-13.162 5.905-13.162 13.163v39.542c0 7.258 5.904 13.162 13.162 13.162h18.995c4.143 0 7.5-3.358 7.5-7.5s-3.357-7.5-7.5-7.5h-17.157v-35.866h111.188v35.867h-62.069c-4.143 0-7.5 3.358-7.5 7.5s3.357 7.5 7.5 7.5h27.236l36.373 30.752c-10.583 7.488-20.608 15.928-29.962 25.283-43.16 43.16-66.93 100.545-66.93 161.583s23.77 118.422 66.93 161.582 100.544 66.93 161.582 66.93c61.915 0 119.888-24.372 163.238-68.625 2.898-2.959 2.85-7.708-.109-10.606-2.956-2.897-7.706-2.85-10.605.109-40.506 41.35-94.674 64.122-152.523 64.122-42.824 0-83.723-12.524-118.516-35.836l123.15-171.273 201.14-63.519c5.134 18.534 7.738 37.711 7.738 57.117 0 45.57-14.168 89.06-40.973 125.767-2.443 3.345-1.712 8.037 1.634 10.48 1.334.974 2.882 1.443 4.417 1.443 2.312 0 4.595-1.066 6.062-3.078 28.693-39.292 43.859-85.841 43.859-134.613 0-20.942-2.839-41.639-8.429-61.636l24.126-7.619c3.964-1.251 7.305-4.101 9.165-7.818 1.876-3.749 2.147-7.987.765-11.933zm-138.724 44.692h-107.915v-17.356h162.876zm33.424-161.781h-141.339v-17.356h113.831c9.477 5.164 18.662 10.954 27.508 17.356zm-141.339 79.713h213.15c3.239 5.655 6.26 11.445 9.063 17.356h-222.213zm178.111-47.357h-33.013c-4.143 0-7.5 3.358-7.5 7.5s3.357 7.5 7.5 7.5h46.026c4.487 5.604 8.727 11.395 12.719 17.356h-203.843v-17.356h113.137c4.143 0 7.5-3.358 7.5-7.5s-3.357-7.5-7.5-7.5h-113.137v-17.356h160.156c6.286 5.51 12.276 11.302 17.955 17.356zm-177.975-80.252c.099-.096.187-.105.234-.105h.018c27.812.847 54.917 6.158 80.501 15.645h-80.89v-15.219c.001-.046.001-.189.137-.321zm-158.612 404.965c-40.327-40.327-62.536-93.944-62.536-150.976 0-73.425 37.258-138.309 93.858-176.748l86.699 73.303c1.409 1.191 3.129 1.773 4.839 1.773 2.131 0 4.248-.903 5.731-2.658 2.674-3.163 2.278-7.895-.885-10.569l-83.045-70.213c29.289-16.887 62.943-27.009 98.813-28.254v210.95l-123.171 171.306c-7.079-5.499-13.862-11.473-20.303-17.914zm158.476-180.288h60.416l-60.416 19.079zm232.46-54.473c-.085.17-.222.213-.268.228l-21.817 6.89h-210.375v-17.356h228.745c1.31 3.295 2.562 6.619 3.738 9.979.014.04.044.124-.023.259z"/></g></svg>