<svg id="Capa_1" enable-background="new 0 0 511.397 511.397" height="512" viewBox="0 0 511.397 511.397" width="512" xmlns="http://www.w3.org/2000/svg"><g><path d="m118.166 202.849c-3.515-2.19-8.14-1.117-10.332 2.398-17.176 27.561-26.255 59.361-26.255 91.964 0 96.01 78.11 174.12 174.12 174.12s174.12-78.11 174.12-174.12-78.11-174.12-174.12-174.12c-48.112 0-94.538 20.199-127.373 55.419-2.825 3.03-2.658 7.775.372 10.6 3.029 2.825 7.775 2.659 10.6-.372 30.008-32.187 72.435-50.647 116.401-50.647 85.225 0 155.008 67.35 158.938 151.62h-19.46c-4.143 0-7.5 3.358-7.5 7.5s3.357 7.5 7.5 7.5h19.46c-1.783 38.23-17.114 72.977-41.298 99.534l-13.711-13.711c-2.93-2.929-7.678-2.929-10.607 0s-2.929 7.678 0 10.606l13.711 13.711c-26.556 24.184-61.304 39.515-99.534 41.298v-19.46c0-4.142-3.357-7.5-7.5-7.5-4.142 0-7.5 3.358-7.5 7.5v19.46c-84.27-3.93-151.62-73.714-151.62-158.938 0-29.795 8.294-58.852 23.986-84.03 2.191-3.515 1.117-8.141-2.398-10.332z"/><path d="m127.474 350.401c-1.497 3.862.421 8.207 4.283 9.703l22.762 8.82c.873.338 1.792.507 2.71.507 1.064 0 2.127-.227 3.115-.677 1.839-.84 3.262-2.387 3.944-4.29l8.245-22.976c1.399-3.899-.627-8.193-4.526-9.592-3.898-1.399-8.193.627-9.592 4.526l-2.681 7.47c-6.793-14.534-10.353-30.432-10.353-46.68 0-60.83 49.488-110.318 110.318-110.318 31.6 0 61.334 13.487 82.126 36.672l-7.9-.463c-4.152-.248-7.684 2.914-7.926 7.049s2.914 7.684 7.049 7.926l24.369 1.428c.146.008.293.013.438.013 1.865 0 3.669-.695 5.054-1.958 1.494-1.363 2.375-3.271 2.442-5.292l.814-24.396c.138-4.14-3.106-7.607-7.246-7.746-4.096-.13-7.607 3.105-7.746 7.246l-.135 4.044c-23.506-25.029-56.421-39.522-91.34-39.522-69.101 0-125.318 56.217-125.318 125.318 0 17.465 3.622 34.577 10.553 50.362l-3.756-1.455c-3.865-1.499-8.207.419-9.703 4.281z"/><path d="m305.83 249.737c-2.848-3.008-7.596-3.137-10.603-.289l-15.918 15.074c-6.644-4.812-14.799-7.66-23.612-7.66-22.249 0-40.35 18.101-40.35 40.35s18.101 40.35 40.35 40.35 40.35-18.101 40.35-40.35c0-8.027-2.365-15.507-6.422-21.799l15.917-15.072c3.007-2.849 3.137-7.596.288-10.604zm-50.132 72.825c-13.978 0-25.35-11.372-25.35-25.35s11.372-25.35 25.35-25.35 25.35 11.372 25.35 25.35-11.372 25.35-25.35 25.35z"/><path d="m434.239 142.108c3.429 2.392 7.465 3.68 11.673 3.68.428 0 .858-.013 1.289-.04 5.473-.337 10.486-2.785 14.117-6.893l5.15-5.826c3.632-4.108 5.446-9.384 5.109-14.857s-2.785-10.487-6.894-14.119l-1.486-1.313c-3.104-2.744-7.845-2.45-10.587.654-2.743 3.104-2.45 7.843.653 10.586l1.486 1.312c1.105.978 1.765 2.328 1.855 3.801.091 1.474-.397 2.894-1.376 4l-5.15 5.826c-.978 1.106-2.327 1.765-3.801 1.855-1.476.094-2.895-.397-4-1.375l-42.923-37.943c-2.282-2.018-2.498-5.518-.479-7.801l5.15-5.827c.978-1.106 2.328-1.765 3.801-1.855 1.477-.092 2.895.397 4 1.375l17.443 15.42c3.103 2.742 7.843 2.452 10.587-.652 2.743-3.103 2.452-7.843-.651-10.586l-17.443-15.42c-4.107-3.632-9.381-5.44-14.856-5.109-5.474.337-10.487 2.785-14.118 6.893l-5.15 5.827c-6.959 7.873-6.757 19.633.091 27.276l-14.885 16.839c-25.959-17.028-55.224-28.127-86.109-32.584v-22.393c11.342-.509 20.42-9.869 20.42-21.335v-20.141c0-11.791-9.593-21.383-21.383-21.383h-60.148c-11.791 0-21.383 9.592-21.383 21.383v20.141c0 11.466 9.078 20.826 20.42 21.335v22.393c-30.886 4.456-60.15 15.556-86.109 32.584l-14.886-16.839c6.848-7.644 7.051-19.403.091-27.276l-5.15-5.825c-7.495-8.481-20.494-9.28-28.975-1.784l-42.921 37.943c-4.108 3.631-6.556 8.646-6.893 14.118s1.478 10.749 5.108 14.856l5.15 5.826c3.631 4.108 8.646 6.556 14.118 6.893.431.027.861.04 1.289.04 4.207 0 8.243-1.288 11.673-3.679l14.923 16.881c-32.724 38.607-50.568 87.04-50.568 138.223 0 57.211 22.279 110.998 62.733 151.452s94.241 62.733 151.452 62.733c24.745 0 49.022-4.197 72.159-12.476 3.9-1.396 5.931-5.688 4.535-9.588s-5.688-5.931-9.588-4.535c-21.511 7.696-44.089 11.599-67.106 11.599-109.831 0-199.186-89.354-199.186-199.186s89.357-199.186 199.188-199.186 199.186 89.354 199.186 199.186c0 72.958-39.829 140.006-103.945 174.98-3.636 1.983-4.976 6.539-2.992 10.175s6.537 4.978 10.176 2.993c68.938-37.604 111.762-109.699 111.762-188.148 0-51.182-17.844-99.616-50.568-138.223zm-214.998-100.584v-20.141c0-3.52 2.863-6.383 6.383-6.383h60.148c3.52 0 6.383 2.864 6.383 6.383v20.141c0 3.52-2.863 6.383-6.383 6.383h-60.148c-3.52.001-6.383-2.863-6.383-6.383zm-154.124 89.251c-1.474-.091-2.824-.75-3.801-1.855l-5.15-5.826c-2.019-2.284-1.803-5.783.48-7.802l42.921-37.943c1.05-.928 2.356-1.383 3.657-1.383 1.53 0 3.054.63 4.145 1.864l5.15 5.825c2.019 2.284 1.803 5.783-.48 7.802l-42.921 37.943c-1.106.978-2.525 1.47-4.001 1.375zm39.129 14.984c-.681.681-1.344 1.376-2.015 2.065l-13.734-15.535 24.031-21.244 13.708 15.507c-7.686 5.856-15.039 12.257-21.99 19.207zm135.415-62.145v-20.706h32.074v20.706c-5.31-.39-10.658-.588-16.037-.588s-10.727.197-16.037.588zm145.499 42.938 13.708-15.507 24.032 21.244-13.734 15.536c-.671-.689-1.334-1.383-2.015-2.065-6.951-6.951-14.304-13.352-21.991-19.208z"/></g></svg>